<svg xmlns="http://www.w3.org/2000/svg" viewBox="0 0 1658 1602" role="img" aria-label="DualPay"><title>DualPay</title><defs><linearGradient id="gold" x1="0" y1="0" x2="0" y2="1"><stop offset="0" stop-color="#F3C84A"/><stop offset="0.28" stop-color="#E0A41F"/><stop offset="0.5" stop-color="#B97A0B"/><stop offset="0.72" stop-color="#E9BB3C"/><stop offset="1" stop-color="#8A5606"/></linearGradient><linearGradient id="blue" x1="0" y1="0" x2="0" y2="1"><stop offset="0" stop-color="#9ED3F3"/><stop offset="0.28" stop-color="#5DAFE4"/><stop offset="0.5" stop-color="#2F86C4"/><stop offset="0.72" stop-color="#74BBE9"/><stop offset="1" stop-color="#1C5C93"/></linearGradient><linearGradient id="feather" x1="0" y1="0" x2="1" y2="1"><stop offset="0" stop-color="#F3C84A"/><stop offset="0.3" stop-color="#E0A41F"/><stop offset="0.55" stop-color="#E9BB3C"/><stop offset="0.8" stop-color="#B97A0B"/><stop offset="1" stop-color="#8A5606"/></linearGradient></defs><g transform="translate(829,1482)"><g transform="translate(1.399658203125,0) scale(-1,-1)"><path d="M333.401123046875 708Q524.8018798828125 708 617.6022338867188 618.5Q710.402587890625 529 710.402587890625 362Q710.402587890625 253 664.9024047851562 171.5Q619.4022216796875 90 533.0018920898438 45.0Q446.6015625 0 324.401123046875 0Q309.0010986328125 0 283.40106201171875 1.0Q257.801025390625 2 230.30096435546875 2.5Q202.8009033203125 3 180.40087890625 3Q139.4005126953125 3 100.00018310546875 2.5Q60.599853515625 2 36.399658203125 0V20Q69.1995849609375 22 85.69952392578125 28.0Q102.199462890625 34 107.7994384765625 52.0Q113.3994140625 70 113.3994140625 106V602Q113.3994140625 639 107.7994384765625 656.5Q102.199462890625 674 85.49951171875 680.5Q68.799560546875 687 36.399658203125 688V708Q60.599853515625 707 100.00018310546875 705.5Q139.4005126953125 704 178.40087890625 705Q214.200927734375 706 259.20098876953125 707.0Q304.2010498046875 708 333.401123046875 708ZM324.402099609375 690Q278.402099609375 690 264.402099609375 673.0Q250.402099609375 656 250.402099609375 604V104Q250.402099609375 52 264.902099609375 35.0Q279.402099609375 18 325.402099609375 18Q418.0010986328125 18 470.400634765625 57.5Q522.8001708984375 97 544.6000366210938 173.0Q566.39990234375 249 566.39990234375 358Q566.39990234375 470 542.7000732421875 543.5Q519.000244140625 617 466.1007080078125 653.5Q413.201171875 690 324.402099609375 690Z" fill="url(#blue)" stroke="#164B78" stroke-width="9" stroke-linejoin="round"/></g><g transform="translate(-1.399658203125,0) scale(1,-1)"><path d="M333.401123046875 708Q524.8018798828125 708 617.6022338867188 618.5Q710.402587890625 529 710.402587890625 362Q710.402587890625 253 664.9024047851562 171.5Q619.4022216796875 90 533.0018920898438 45.0Q446.6015625 0 324.401123046875 0Q309.0010986328125 0 283.40106201171875 1.0Q257.801025390625 2 230.30096435546875 2.5Q202.8009033203125 3 180.40087890625 3Q139.4005126953125 3 100.00018310546875 2.5Q60.599853515625 2 36.399658203125 0V20Q69.1995849609375 22 85.69952392578125 28.0Q102.199462890625 34 107.7994384765625 52.0Q113.3994140625 70 113.3994140625 106V602Q113.3994140625 639 107.7994384765625 656.5Q102.199462890625 674 85.49951171875 680.5Q68.799560546875 687 36.399658203125 688V708Q60.599853515625 707 100.00018310546875 705.5Q139.4005126953125 704 178.40087890625 705Q214.200927734375 706 259.20098876953125 707.0Q304.2010498046875 708 333.401123046875 708ZM324.402099609375 690Q278.402099609375 690 264.402099609375 673.0Q250.402099609375 656 250.402099609375 604V104Q250.402099609375 52 264.902099609375 35.0Q279.402099609375 18 325.402099609375 18Q418.0010986328125 18 470.400634765625 57.5Q522.8001708984375 97 544.6000366210938 173.0Q566.39990234375 249 566.39990234375 358Q566.39990234375 470 542.7000732421875 543.5Q519.000244140625 617 466.1007080078125 653.5Q413.201171875 690 324.402099609375 690Z" fill="url(#gold)" stroke="#6B4205" stroke-width="9" stroke-linejoin="round"/></g><g transform="translate(10,-566) rotate(56)"><g fill="url(#feather)" stroke="#6B4205" stroke-width="6" stroke-linejoin="round"><path d="M-960,0 C-672,-18 -432,-118 -134,-104 C-19,-98 48,-50 67,-5 L86,6 C29,60 -134,92 -365,78 C-634,62 -845,20 -960,0 Z"/></g><path d="M-914,0 Q-906,-13 -891,-24 M-914,0 Q-906,13 -891,24 M-868,0 Q-857,-16 -839,-30 M-868,0 Q-857,16 -839,30 M-822,0 Q-809,-20 -788,-36 M-822,0 Q-809,20 -788,36 M-776,0 Q-761,-23 -736,-42 M-776,0 Q-761,23 -736,42 M-730,0 Q-713,-26 -684,-48 M-730,0 Q-713,26 -684,48 M-684,0 Q-665,-30 -632,-54 M-684,0 Q-665,30 -632,54 M-637,0 Q-616,-33 -580,-60 M-637,0 Q-616,33 -580,60 M-591,0 Q-568,-36 -529,-66 M-591,0 Q-568,36 -529,66 M-545,0 Q-520,-40 -477,-72 M-545,0 Q-520,40 -477,72 M-499,0 Q-472,-43 -425,-78 M-499,0 Q-473,42 -427,76 M-453,0 Q-424,-46 -373,-84 M-453,0 Q-427,42 -381,76 M-407,0 Q-376,-50 -322,-90 M-407,0 Q-380,42 -335,76 M-361,0 Q-327,-53 -270,-96 M-361,0 Q-334,42 -289,76 M-315,0 Q-280,-55 -220,-100 M-315,0 Q-288,42 -243,76 M-269,0 Q-234,-55 -174,-100 M-269,0 Q-242,42 -197,76 M-223,0 Q-196,-41 -151,-75 M-223,0 Q-203,31 -169,57 M-177,0 Q-159,-28 -129,-50 M-177,0 Q-163,21 -141,38 M-131,0 Q-122,-14 -107,-25 M-131,0 Q-124,10 -113,19" fill="none" stroke="#6B4205" stroke-opacity=".45" stroke-width="3.2" stroke-linecap="round"/><path d="M-930,0 L192,0" stroke="#6B4205" stroke-width="9" stroke-linecap="round" fill="none"/><path d="M-900,-2 L192,-2" stroke="#F3C84A" stroke-width="3.5" stroke-linecap="round" fill="none"/><path d="M48,-5 L288,-2 L288,4 L48,7 Z" fill="url(#gold)" stroke="#6B4205" stroke-width="5"/></g></g></svg>